#!OML:ASF G:\JayActor3\Patient Classification 1\Patient 1\Session 5\male.ASF
:FULLY-SPECIFIED
:DEGREES
494
root 3.87174 16.8489 -9.77297 370.033 -64.6524 -22.2372
lowerback 8.78763 -3.11161 1.35571
upperback 9.71926 -4.48585 1.0587
thorax 5.23558 -2.36741 0.514654
lowerneck 2.00537 2.31734 6.87735
upperneck 23.9658 0.778565 5.40443
head 7.08148 1.00953 0.596432
rclavicle 4.57205e-015 6.36111e-015
rhumerus -12.0492 -59.3697 -39.9926
rradius 33.2494
rwrist -25.5672
rhand -44.3704 -11.8422
rfingers 7.12502
rthumb -17.1777 -41.1029
lclavicle 4.57205e-015 6.36111e-015
lhumerus 18.6108 29.3212 65.172
lradius 36.5108
lwrist 49.862
lhand -36.0129 18.0994
lfingers 7.12502
lthumb -9.1223 47.8821
rfemur 8.52318 -18.3544 31.8386
rtibia 22.3461
rfoot -27.8489 -29.2822
rtoes 8.61288
lfemur -87.3067 55.7792 -37.6424
ltibia 107.322
lfoot 40.8988 4.04377
ltoes 16.332
495
root 3.82352 16.8257 -9.78135 370.375 -64.2388 -22.5596
lowerback 8.3766 -3.19506 1.32499
upperback 9.33084 -4.57689 1.18397
thorax 5.05637 -2.40775 0.654345
lowerneck 2.19001 2.23268 6.76352
upperneck 23.4241 0.721696 5.55684
head 6.86634 0.969647 0.655792
rclavicle -9.93923e-016 -1.19271e-014
rhumerus -12.4015 -58.3454 -39.7973
rradius 35.31
rwrist -29.6465
rhand -43.909 -10.6073
rfingers 7.12502
rthumb -16.7336 -39.9061
lclavicle -9.93923e-016 -1.19271e-014
lhumerus 17.732 29.0101 65.1925
lradius 39.1647
lwrist 54.7075
lhand -35.825 17.9882
lfingers 7.12502
lthumb -8.94089 47.7787
rfemur 9.0763 -18.3802 32.2241
rtibia 21.4233
rfoot -27.7538 -29.3291
rtoes 8.78228
lfemur -88.5657 55.7739 -38.5145
ltibia 107.981
lfoot 40.913 4.67367
ltoes 16.9646
496
root 3.77723 16.8414 -9.7904 370.709 -63.8623 -22.8599
lowerback 7.96983 -3.27445 1.29897
upperback 8.94039 -4.66321 1.30421
thorax 4.87423 -2.44548 0.785468
lowerneck 2.37687 2.14293 6.64166
upperneck 22.8605 0.663591 5.69791
head 6.64503 0.926742 0.712504
rclavicle 1.41137e-014 -1.59028e-014
rhumerus -12.7599 -57.3342 -39.634
rradius 37.4559
rwrist -33.654
rhand -43.3501 -9.44183
rfingers 7.12502
rthumb -16.1955 -38.7853
lclavicle 1.41137e-014 -1.59028e-014
lhumerus 16.815 28.7123 65.2141
lradius 41.8516
lwrist 59.3603
lhand -35.5404 18.0081
lfingers 7.12502
lthumb -8.66626 47.8102
rfemur 9.66113 -18.3831 32.5821
rtibia 20.4124
rfoot -27.5788 -29.3745
rtoes 8.9253
lfemur -89.2254 55.8798 -39.0844
ltibia 108.232
lfoot 40.8439 4.95194
ltoes 17.3886
497
root 3.73207 16.858 -9.79687 371.033 -63.523 -23.1364
lowerback 7.56613 -3.3496 1.27493
upperback 8.54917 -4.74478 1.41989
thorax 4.69128 -2.48077 0.90998
lowerneck 2.5656 2.04815 6.51189
upperneck 22.2737 0.60435 5.82678
head 6.41729 0.88088 0.766351
rclavicle 4.83047e-014 -2.38542e-014
rhumerus -13.1238 -56.3256 -39.5021
rradius 39.6853
rwrist -37.5863
rhand -42.6901 -8.38592
rfingers 7.12502
rthumb -15.5599 -37.78
lclavicle 4.83047e-014 -2.38542e-014
lhumerus 15.8602 28.4164 65.2319
lradius 44.5638
lwrist 63.8088
lhand -35.1499 18.1874
lfingers 7.12502
lthumb -8.28944 48.0048
rfemur 10.2566 -18.3667 32.911
rtibia 19.364
rfoot -27.354 -29.4064
rtoes 9.04687
lfemur -89.6007 55.9268 -39.3819
ltibia 108.347
lfoot 40.7376 5.03147
ltoes 17.6064
498
root 3.6881 16.8758 -9.80082 371.352 -63.2221 -23.3953
lowerback 7.16802 -3.42009 1.2542
upperback 8.15641 -4.82091 1.53227
thorax 4.50513 -2.51331 1.02875
lowerneck 2.75729 1.94857 6.37464
upperneck 21.664 0.544187 5.9426
head 6.18317 0.832203 0.8171
rclavicle 3.40916e-014 -2.8625e-014
rhumerus -13.4862 -55.3191 -39.4013
rradius 41.9867
rwrist -41.434
rhand -41.9295 -7.45665
rfingers 7.12502
rthumb -14.8273 -36.9062
lclavicle 3.40916e-014 -2.8625e-014
lhumerus 14.8684 28.1191 65.2445
lradius 47.2915
lwrist 68.025
lhand -34.6132 18.5681
lfingers 7.12502
lthumb -7.77144 48.4053
rfemur 11.0533 -18.3328 33.2109
rtibia 17.9143
rfoot -26.8922 -29.4899
rtoes 9.1472
lfemur -89.7005 55.9202 -39.3979
ltibia 108.307
lfoot 40.6322 4.90018
ltoes 17.6146
499
root 3.64541 16.895 -9.80221 371.673 -62.96 -23.6442
lowerback 6.77496 -3.48564 1.24101
upperback 7.76295 -4.8911 1.64168
thorax 4.31652 -2.54266 1.13977
lowerneck 2.94819 1.84466 6.22875
upperneck 21.0329 0.482729 6.04707
head 5.94386 0.78079 0.865605
rclavicle -4.67144e-015 2.38542e-015
rhumerus -13.8466 -54.3098 -39.3326
rradius 44.3571
rwrist -45.1857
rhand -41.063 -6.69591
rfingers 7.12502
rthumb -13.9923 -36.205
lclavicle -4.67144e-015 2.38542e-015
lhumerus 13.8396 27.8056 65.2461
lradius 50.0311
lwrist 72.0217
lhand -33.9495 19.1207
lfingers 7.12502
lthumb -7.13083 48.9805
rfemur 11.9075 -18.2835 33.4826
rtibia 16.3435
rfoot -26.3341 -29.5726
rtoes 9.22182
lfemur -89.5125 55.8585 -39.1235
ltibia 108.127
lfoot 40.511 4.56165
ltoes 17.422
500
root 3.60405 16.9158 -9.80106 372.002 -62.7372 -23.8889
lowerback 6.38773 -3.54586 1.23783
upperback 7.36955 -4.95482 1.74869
thorax 4.12547 -2.56855 1.2424
lowerneck 3.14049 1.73572 6.07864
upperneck 20.378 0.419571 6.13665
head 5.69843 0.72655 0.910059
rclavicle 1.82882e-014 -2.38542e-014
rhumerus -14.1972 -53.2963 -39.2984
rradius 46.7848
rwrist -48.8181
rhand -40.0868 -6.12385
rfingers 7.12502
rthumb -13.0514 -35.6955
lclavicle 1.82882e-014 -2.38542e-014
lhumerus 12.7671 27.4536 65.2227
lradius 52.7807
lwrist 75.8061
lhand -33.1528 19.8404
lfingers 7.12502
lthumb -6.36168 49.7249
rfemur 12.8467 -18.2207 33.7267
rtibia 14.6022
rfoot -25.6508 -29.6625
rtoes 9.26535
lfemur -89.04 55.7407 -38.5589
ltibia 107.807
lfoot 40.3775 4.01468
ltoes 17.0247
501
root 3.56404 16.9383 -9.79739 372.341 -62.5551 -24.1347
lowerback 6.00714 -3.6005 1.24597
upperback 6.97653 -5.01174 1.85402
thorax 3.93163 -2.59083 1.33681
lowerneck 3.33429 1.62199 5.92645
upperneck 19.7001 0.354995 6.20883
head 5.44718 0.669747 0.949455
rclavicle -3.0911e-014 2.94201e-014
rhumerus -14.5319 -52.2723 -39.3011
rradius 49.2625
rwrist -52.3206
rhand -38.994 -5.75546
rfingers 7.12502
rthumb -11.9979 -35.3916
lclavicle -3.0911e-014 2.94201e-014
lhumerus 11.6631 27.0767 65.1874
lradius 55.5319
lwrist 79.3575
lhand -32.2221 20.682
lfingers 7.12502
lthumb -5.46315 50.5916
rfemur 13.914 -18.1458 33.9432
rtibia 12.6126
rfoot -24.8025 -29.7704
rtoes 9.27867
lfemur -88.2895 55.5665 -37.7099
ltibia 107.347
lfoot 40.2271 3.27156
ltoes 16.4321
502
root 3.52542 16.9624 -9.7912 372.697 -62.4146 -24.388
lowerback 5.63429 -3.64924 1.26779
upperback 6.58377 -5.06137 1.95858
thorax 3.73398 -2.60929 1.42279
lowerneck 3.52967 1.50381 5.77281
upperneck 18.9998 0.289064 6.26291
head 5.19042 0.610561 0.983604
rclavicle -1.33186e-014 2.14687e-014
rhumerus -14.8437 -51.2303 -39.3418
rradius 51.7788
rwrist -55.6795
rhand -37.7968 -5.60352
rfingers 7.12502
rthumb -10.8433 -35.3036
lclavicle -1.33186e-014 2.14687e-014
lhumerus 10.5291 26.6719 65.1392
lradius 58.2825
lwrist 82.6764
lhand -31.1288 21.6637
lfingers 7.12502
lthumb -4.40755 51.5978
rfemur 15.19 -18.0604 34.133
rtibia 10.2249
rfoot -23.7119 -29.9203
rtoes 9.25939
lfemur -87.2737 55.3355 -36.59
ltibia 106.747
lfoot 40.0541 2.3374
ltoes 15.6431
